<?xml version="1.0" encoding="UTF-8"?>
<svg width="152px" height="41px" viewBox="0 0 152 41" version="1.1" xmlns="http://www.w3.org/2000/svg" xmlns:xlink="http://www.w3.org/1999/xlink">
    <!-- Generator: Sketch 52.5 (67469) - http://www.bohemiancoding.com/sketch -->
    <title>Cedar_white</title>
    <desc>Created with Sketch.</desc>
    <g id="Page-1" stroke="none" stroke-width="1" fill="none" fill-rule="evenodd">
        <g id="Desktop-HD-Copy-18" transform="translate(-806.000000, -588.000000)">
            <g id="Cedar_white" transform="translate(806.000000, 588.000000)">
                <path d="M144.76249,35.596524 L139.244302,35.596524 L139.244302,15.2394044 L144.922371,13.8059326 L144.76249,19.778177 C146.681717,15.3796667 147.881371,13.8059326 150.240654,13.8059326 C151.080302,13.8059326 151.680239,14.0884546 152,14.4919306 L152,18.8500489 L151.240402,18.8500489 C148.761264,18.8500489 146.801792,18.9712249 144.76249,21.029219 L144.76249,35.596524 Z M129.485209,31.4805357 L129.485209,23.9345572 L126.046348,25.3469453 C124.367052,25.9925513 123.327279,26.9206794 123.327279,29.1804115 C123.327279,31.2787977 124.287002,32.7717478 126.406134,32.7717478 C127.565983,32.7717478 128.365606,32.3281017 129.485209,31.4805357 Z M129.605065,32.4490557 C128.325581,34.1439658 126.246473,35.9196599 123.367304,35.9196599 C120.128348,35.9196599 117.96919,33.9422278 117.96919,30.7139756 C117.96919,27.2433715 120.448329,25.8312053 123.447354,24.7013392 L129.485209,22.4819991 L129.485209,19.0520088 C129.485209,16.7518847 128.725612,15.0973666 126.646285,15.0973666 C124.726838,15.0973666 123.967241,16.5501467 123.967241,18.4867429 C123.967241,19.2939169 124.087096,20.1010909 124.287002,20.988827 L120.968215,21.432695 C119.888417,21.0693891 119.208869,20.222045 119.208869,18.8904409 C119.208869,15.5412346 122.647511,13.8059326 127.086121,13.8059326 C132.204279,13.8059326 135.003398,15.7025807 135.003398,20.4240049 L135.003398,35.596524 L129.605065,35.596524 L129.605065,32.4490557 Z M100.265111,23.9749492 C100.265111,28.8978895 102.264168,32.5700098 105.902936,32.5700098 C107.26269,32.5700098 108.382294,32.1261417 109.301772,31.2787977 L109.301772,20.625743 C109.301772,17.4782747 107.982483,15.6217967 105.583175,15.6217967 C102.224363,15.6217967 100.265111,18.9308329 100.265111,23.9749492 Z M109.301772,5.15094981 L114.859986,4 L114.859986,35.596524 L109.301772,35.596524 L109.301772,32.2473177 C107.702527,34.5474419 105.663225,36 102.864105,36 C98.0256839,36 94.7869479,32.0455797 94.7869479,25.9117674 C94.7869479,18.2850049 99.2653631,13.8867166 104.983457,13.8867166 C106.822634,13.8867166 108.342269,14.4111466 109.301772,15.2991046 L109.301772,5.15094981 Z M79.5479327,21.6748251 L87.5452598,21.6748251 C87.5452598,17.8815288 86.5455114,15.2991046 83.9465176,15.2991046 C81.3072787,15.2991046 79.8676938,17.9623128 79.5479327,21.6748251 Z M92.5035367,22.2396471 L92.5035367,23.1677752 L79.4678824,23.1677752 C79.3080019,28.8171056 82.1869517,32.1667557 86.1056749,32.1667557 C88.8247442,32.1667557 90.6241153,30.9962757 92.0637002,28.8978895 L92.7034424,29.2611955 C91.6636689,33.2562298 88.7446939,36 84.1464233,36 C78.3480587,36 74.4695804,31.6824956 74.4695804,25.4678993 C74.4695804,18.5675269 78.8679454,13.8059326 84.346329,13.8059326 C89.7044172,13.8059326 92.5035367,17.3974908 92.5035367,22.2396471 Z M70.9524279,9.24607628 L70.992453,15.7429727 L69.4728179,15.7429727 C68.5133146,11.0619404 66.1540316,8.56007823 62.2753334,8.56007823 C56.7571447,8.56007823 54.197956,14.1286246 54.197956,20.988827 C54.197956,28.4944135 57.1569561,34.2651418 62.6351197,34.2651418 C66.3937425,34.2651418 68.9529312,31.8842337 70.3527108,25.9925513 L71.9519563,25.9925513 L71.3522393,33.5789218 C68.9931762,35.1124859 65.8740757,36 62.1154529,36 C53.3983333,36 48,30.4716237 48,22.1186931 C48,12.7566285 54.197956,6.86516815 62.1154529,6.86516815 C65.67395,6.86516815 68.6729752,7.75290421 70.9524279,9.24607628 Z" id="Fill-1" fill="#E6ECF0" fill-rule="nonzero"></path>
                <path d="M12.9147084,22.7504242 L14.8111948,23.7879629 C15.3752294,24.0964143 16.0608364,24.0665282 16.59646,23.7101252 L26.6889565,16.9931101 C26.9102976,16.8456868 27.0276855,16.5838488 26.9944293,16.3175502 C26.7618559,14.4648343 25.9976232,10.8680184 23.4844649,7.2914984 C23.2181948,6.9127923 22.6642913,6.90164077 22.3797413,7.26651897 L12.3749003,20.1048342 C11.7044898,20.9650635 11.9626111,22.2296475 12.9147084,22.7504242" id="Fill-2" fill="#FEFEFE"></path>
                <path d="M15.0958235,11.5267805 C15.8627429,12.2260514 17.0850917,12.1393831 17.7382673,11.3394014 L21.846894,6.30781054 C22.0782412,6.02454769 22.0439591,5.61687737 21.7674322,5.3739866 C20.4399669,4.20670667 17.1032544,1.27270907 15.8588833,0.178493844 C15.5873512,-0.0602280661 15.173696,-0.0591309985 14.9021638,0.179590912 L9.23268127,5.1646661 C8.92618594,5.43432532 8.9218723,5.89904315 9.2233729,6.17374888 L15.0958235,11.5267805" id="Fill-3" fill="#FEFEFE"></path>
                <path d="M3.3645399,16.5317603 L9.22004178,19.7835877 C9.96880058,20.1993101 10.8997138,20.0015746 11.4269215,19.3150752 L14.6235881,15.1507974 C15.1855446,14.4185617 15.1105138,13.3661719 14.4505082,12.7260914 L7.7145563,6.19422114 C7.4095638,5.89864183 6.92042488,5.9468811 6.67386346,6.29502301 C3.98293543,10.0945482 3.22067551,13.9473186 3.00487893,15.8206861 C2.9712368,16.1117146 3.1137732,16.392276 3.3645399,16.5317603" id="Fill-4" fill="#FEFEFE"></path>
                <g id="Group-8" transform="translate(0.000000, 18.000000)" fill="#FFFFFF">
                    <path d="M20.7201443,20.7148952 L1.89109278,13.1980571 C1.30072165,12.9623619 0.719649485,13.5373619 0.966412371,14.1062286 C4.87243299,23.1099619 14.587134,22.834619 15.2033608,22.8078952 C15.2253608,22.807019 15.243732,22.807019 15.2655052,22.8081143 C15.5603505,22.8206 17.8889485,22.8876286 20.6743299,22.002019 C21.2987216,21.8035619 21.3279794,20.957381 20.7201443,20.7148952" id="Fill-5"></path>
                    <path d="M1.42002062,11.4472095 L6.16612371,13.3419714 C6.99872165,13.6744857 7.90729897,13.7892667 8.80045361,13.6749238 L21.2569897,12.0802571 C22.0675876,11.9764286 22.2664948,10.9311333 21.5470722,10.5556857 L1.66519588,0.182904762 C1.2485567,-0.0343904762 0.727134021,0.19407619 0.630515464,0.641809524 C-0.272164948,4.82693333 0.548865979,9.13253333 1.00043299,10.9738476 C1.05282474,11.1878571 1.20954639,11.3633143 1.42002062,11.4472095" id="Fill-7"></path>
                </g>
                <path d="M28.2041412,30.0063255 C24.9550478,30.433687 15.49858,31.6773873 11.4422738,32.2109755 C10.9251987,32.279041 10.8338841,32.9820117 11.3158727,33.1797361 L22.9371282,37.9458776 C23.1528198,38.0344742 23.4002241,38.0143893 23.5938742,37.8849535 C25.704458,36.4752182 27.6989866,34.300026 28.9540012,30.9514306 C29.1404541,30.4542183 28.7340363,29.9366979 28.2041412,30.0063255" id="Fill-9" fill="#FEFEFE"></path>
                <path d="M28.5351773,17.1199198 L19.4354386,23.4751961 C18.8246988,23.9017945 18.8636452,24.8669012 19.5068039,25.2361574 L25.1866614,28.5324107 C25.8567998,28.9213205 26.6261534,29.0734624 27.3831051,28.9668706 L28.7738597,28.7710284 C29.0591037,28.7307963 29.2893005,28.5067454 29.3506574,28.2082421 C29.7969086,26.0449603 30.4348454,21.7288015 29.5745445,17.5606226 C29.4729358,17.0683581 28.9316033,16.8431511 28.5351773,17.1199198" id="Fill-10" fill="#FEFEFE"></path>
            </g>
        </g>
    </g>
</svg>